<svg width="4051" height="1731" viewBox="0 0 4051 1731" fill="none" xmlns="http://www.w3.org/2000/svg">
<path d="M4051 0H0V1731H4051V0Z" fill="#2B2B2B"/>
<path d="M788.224 271.601V570.893H598.409V351.966H318.532L373.952 394.921V570.892L788.224 1079.41V1298.34V1447.98C788.224 1521.42 728.649 1585.16 651.056 1585.16H321.305C243.717 1585.16 184.136 1521.43 184.136 1447.98V1138.99H373.952V1366.23H598.409V1147.3L184.136 638.784V271.595C184.136 194.002 243.712 134.417 321.305 134.417H651.056C728.644 134.417 788.224 193.997 788.224 271.595V271.601ZM1075.05 1148.7H1270.41L1173.42 353.34L1075.05 1148.7ZM829.81 1586.55L1003 177.362L968.359 135.793H1338.29L1517.02 1586.55H1324.43L1298.11 1367.62L991.91 1366.24L1043.17 1406.42L1021.01 1586.55H829.806L829.81 1586.55ZM1774.73 1581.01H1583.53V173.218L1548.89 130.264H1774.73V1581.02L1774.73 1581.01ZM2079.55 745.512H2302.61V347.841H2022.74L2079.55 390.796V745.511V745.512ZM2492.45 267.455V827.235C2492.45 904.828 2432.88 964.413 2355.28 964.413H2328.96L2492.45 1580.99H2295.71L2132.21 964.413H2022.76L2079.57 1007.37V1581.04H1888.37V347.83V171.858L1853.73 128.904L2355.28 130.29C2432.87 130.29 2492.45 189.87 2492.45 267.468L2492.45 267.455ZM2757.06 1366.24H2981.52V353.381H2701.64L2757.06 396.335V1366.29V1366.24ZM3171.32 271.601V1448.01C3171.32 1525.6 3111.74 1585.19 3034.15 1585.19H2704.4C2626.81 1585.19 2567.23 1525.61 2567.23 1448.01V271.601C2567.23 198.164 2626.8 134.423 2704.4 134.423H3034.15C3111.73 134.423 3171.32 198.159 3171.32 271.601V271.601ZM3197.66 134.429H3419.34L3548.2 1176.41L3675.66 134.429H3866.86L3689.52 1585.18H3405.48L3233.68 177.389H3232.29L3197.66 134.429Z" fill="#FCFCFC"/>
</svg>
