<svg width="1273" height="544" viewBox="0 0 1273 544" fill="none" xmlns="http://www.w3.org/2000/svg">
<path d="M1273 0H0V544H1273V0Z" fill="#659c74"/>
<path d="M247.694 85.356V179.414H188.046V110.612H100.097L117.512 124.111V179.414L247.694 339.226V408.027V455.057C247.694 478.136 228.973 498.167 204.59 498.167H100.968C76.5865 498.167 57.8636 478.137 57.8636 455.057V357.95H117.512V429.364H188.046V360.562L57.8636 200.75V85.354C57.8636 60.9689 76.5849 42.2433 100.968 42.2433H204.59C228.972 42.2433 247.694 60.9673 247.694 85.354V85.356ZM337.826 361.002H399.217L368.739 111.044L337.826 361.002ZM260.762 498.605L315.185 55.7394L304.301 42.6757H420.549L476.714 498.603H416.195L407.923 429.801L311.701 429.366L327.811 441.994L320.844 498.603H260.761L260.762 498.605ZM557.698 496.864H497.615V54.4373L486.73 40.9382H557.699V496.866L557.698 496.864ZM653.484 234.292H723.581V109.316H635.632L653.484 122.815V234.291V234.292ZM783.236 84.0531V259.975C783.236 284.36 764.515 303.086 740.132 303.086H731.86L783.236 496.857H721.411L670.034 303.086H635.638L653.49 316.585V496.871H593.407V109.312V54.0099L582.522 40.5107L740.133 40.9462C764.514 40.9462 783.237 59.6703 783.237 84.057L783.236 84.0531ZM866.389 429.367H936.923V111.057H848.974L866.389 124.556V429.382V429.367ZM996.565 85.356V455.065C996.565 479.45 977.844 498.176 953.461 498.176H849.839C825.457 498.176 806.734 479.452 806.734 455.065V85.356C806.734 62.277 825.456 42.2452 849.839 42.2452H953.461C977.842 42.2452 996.565 62.2754 996.565 85.356ZM1004.84 42.2468H1074.51L1115 369.71L1155.05 42.2468H1215.14L1159.41 498.174H1070.15L1016.16 55.748H1015.73L1004.84 42.2468Z" fill="#FCFCFC"/>
</svg>
